<svg width="11" height="21" viewBox="0 0 11 21" fill="none" xmlns="http://www.w3.org/2000/svg">
    <path d="M8.82583 20.1167C9.06262 20.3647 9.36399 20.5 9.71918 20.5C10.4296 20.5 11 19.9138 11 19.1697C11 18.7976 10.8493 18.4594 10.6018 18.2001L3.06751 10.4887L10.6018 2.79989C10.8493 2.54059 11 2.19109 11 1.83033C11 1.08625 10.4296 0.5 9.71918 0.5C9.36399 0.5 9.06262 0.635287 8.82583 0.883315L0.452055 9.45152C0.150685 9.74465 0.0107632 10.1054 0 10.5C0 10.8946 0.150685 11.2328 0.452055 11.5372L8.82583 20.1167Z" fill="white"/>
</svg>
