<svg width="19" height="21" viewBox="0 0 19 21" fill="none" xmlns="http://www.w3.org/2000/svg">
    <path d="M6.5 15.5386V16.5386C6.5 17.3342 6.81607 18.0973 7.37868 18.6599C7.94129 19.2225 8.70435 19.5386 9.5 19.5386C10.2956 19.5386 11.0587 19.2225 11.6213 18.6599C12.1839 18.0973 12.5 17.3342 12.5 16.5386V15.5386M7.5 3.53857C7.5 3.00814 7.71071 2.49943 8.08579 2.12436C8.46086 1.74929 8.96957 1.53857 9.5 1.53857C10.0304 1.53857 10.5391 1.74929 10.9142 2.12436C11.2893 2.49943 11.5 3.00814 11.5 3.53857C12.6484 4.0816 13.6274 4.9269 14.332 5.98387C15.0367 7.04085 15.4404 8.26965 15.5 9.53857V12.5386C15.5753 13.1603 15.7954 13.7556 16.1428 14.2767C16.4902 14.7978 16.9551 15.23 17.5 15.5386H1.5C2.04494 15.23 2.50981 14.7978 2.85719 14.2767C3.20457 13.7556 3.42474 13.1603 3.5 12.5386V9.53857C3.55956 8.26965 3.9633 7.04085 4.66795 5.98387C5.3726 4.9269 6.35159 4.0816 7.5 3.53857Z" stroke="#020202" stroke-width="2" stroke-linecap="round" stroke-linejoin="round"/>
</svg>
