<svg width="17" height="20" viewBox="0 0 17 20" fill="none" xmlns="http://www.w3.org/2000/svg">
    <path d="M1.42011 16.0397H4.90275C4.96192 17.7096 6.28059 19.2565 8.22478 19.2565C10.1605 19.2565 11.4876 17.7272 11.5553 16.0397H15.0295C15.9086 16.0397 16.4496 15.5387 16.4496 14.7828C16.4496 13.8424 15.6296 13.0426 14.8604 12.278C14.2602 11.6715 14.1165 10.4586 14.0066 9.21936C13.8883 5.90588 12.95 3.69104 10.7522 2.86487C10.4226 1.69592 9.48428 0.808228 8.22478 0.808228C6.96528 0.808228 6.027 1.69592 5.70578 2.86487C3.49955 3.69104 2.56972 5.90588 2.44292 9.21936C2.33303 10.4586 2.18933 11.6715 1.58917 12.278C0.819942 13.0426 0 13.8424 0 14.7828C0 15.5387 0.540993 16.0397 1.42011 16.0397ZM2.06253 14.4049V14.2994C2.28231 14.0446 2.77259 13.5787 3.18678 13.0865C3.77004 12.3922 4.04054 11.109 4.12507 9.43909C4.22651 5.91467 5.27468 4.72815 6.62716 4.35022C6.83849 4.2887 6.94837 4.18323 6.96528 3.94592C7.00755 3.05823 7.48937 2.46057 8.22478 2.46057C8.96864 2.46057 9.44201 3.05823 9.48428 3.94592C9.50118 4.18323 9.61953 4.2887 9.8224 4.35022C11.1833 4.72815 12.2231 5.91467 12.3245 9.43909C12.4175 11.109 12.688 12.3922 13.2628 13.0865C13.677 13.5787 14.1503 14.0446 14.3701 14.2994V14.4049H2.06253ZM8.22478 17.8414C7.26959 17.8414 6.5849 17.1295 6.52572 16.0397H9.93229C9.88157 17.1207 9.18842 17.8414 8.22478 17.8414Z" fill="white"/>
</svg>
