<svg width="23" height="24" viewBox="0 0 23 24" fill="none" xmlns="http://www.w3.org/2000/svg">
    <path d="M15.0133 14.4588C18.5033 14.4588 21.3332 11.6409 21.3332 8.16489C21.3332 4.68992 18.5033 1.87195 15.0133 1.87195C11.5233 1.87195 8.69536 4.68992 8.69536 8.16489C8.69536 9.77487 9.43035 10.9459 9.43035 10.9459L1.78843 18.5558C1.44543 18.8978 0.965433 19.7858 1.78843 20.6058L2.67042 21.4838C3.01341 21.7768 3.87541 22.1868 4.5804 21.4838L5.61039 20.4598C6.63838 21.4838 7.81437 20.8988 8.25536 20.3128C8.98936 19.2888 8.10837 18.2638 8.10837 18.2638L8.40236 17.9708C9.81235 19.3758 11.0473 18.5568 11.4883 17.9708C12.2233 16.9468 11.4883 15.9218 11.4883 15.9218C11.1943 15.3368 10.6063 15.3368 11.3413 14.6048L12.2233 13.7268C12.9283 14.3118 14.3783 14.4588 15.0153 14.4588H15.0133Z" stroke="#020202" stroke-width="2" stroke-linejoin="round"/>
    <path d="M17.2185 8.16595C17.2172 8.74925 16.9843 9.30815 16.571 9.71976C16.1577 10.1314 15.5978 10.362 15.0145 10.3609C14.4312 10.362 13.8714 10.1314 13.4581 9.71976C13.0448 9.30815 12.8119 8.74925 12.8105 8.16595C12.8111 7.87705 12.8685 7.59107 12.9795 7.32436C13.0906 7.05765 13.2531 6.81542 13.4577 6.6115C13.6624 6.40759 13.9052 6.24598 14.1723 6.13591C14.4394 6.02583 14.7256 5.96945 15.0145 5.96997C15.3034 5.96945 15.5896 6.02583 15.8567 6.13591C16.1238 6.24598 16.3667 6.40759 16.5713 6.6115C16.776 6.81542 16.9385 7.05765 17.0495 7.32436C17.1606 7.59107 17.218 7.87705 17.2185 8.16595Z" stroke="#020202" stroke-width="2"/>
</svg>
