<svg width="24" height="24" viewBox="0 0 24 24" fill="none" xmlns="http://www.w3.org/2000/svg">
<mask id="mask0_108_1138" style="mask-type:alpha" maskUnits="userSpaceOnUse" x="0" y="0" width="24" height="24">
<rect width="24" height="24" rx="1" fill="#D9D9D9"/>
</mask>
<g mask="url(#mask0_108_1138)">
<path d="M6.92693 18.1269C6.63592 18.4179 6.16411 18.4179 5.8731 18.1269C5.5821 17.8359 5.5821 17.3641 5.8731 17.0731L10.2391 12.7071C10.6296 12.3166 10.6296 11.6834 10.2391 11.2929L5.8731 6.92693C5.5821 6.63592 5.5821 6.16411 5.8731 5.8731C6.16411 5.5821 6.63592 5.5821 6.92693 5.8731L11.2929 10.2391C11.6834 10.6296 12.3166 10.6296 12.7071 10.2391L17.0731 5.8731C17.3641 5.5821 17.8359 5.5821 18.1269 5.8731C18.4179 6.16411 18.4179 6.63592 18.1269 6.92693L13.7609 11.2929C13.3704 11.6834 13.3704 12.3166 13.7609 12.7071L18.1269 17.0731C18.4179 17.3641 18.4179 17.8359 18.1269 18.1269C17.8359 18.4179 17.3641 18.4179 17.0731 18.1269L12.7071 13.7609C12.3166 13.3704 11.6834 13.3704 11.2929 13.7609L6.92693 18.1269Z" fill="#ACACAC"/>
</g>
</svg>
