<svg width="24" height="24" viewBox="0 0 24 24" fill="none" xmlns="http://www.w3.org/2000/svg">
<mask id="mask0_108_1133" style="mask-type:alpha" maskUnits="userSpaceOnUse" x="0" y="0" width="24" height="24">
<rect width="24" height="24" rx="1" fill="#D9D9D9"/>
</mask>
<g mask="url(#mask0_108_1133)">
<path d="M6.92691 18.1269C6.63591 18.4179 6.16409 18.4179 5.87309 18.1269C5.58208 17.8359 5.58208 17.3641 5.87309 17.0731L10.2391 12.7071C10.6296 12.3166 10.6296 11.6834 10.2391 11.2929L5.87309 6.9269C5.58208 6.63589 5.58208 6.16408 5.87309 5.87307C6.16409 5.58207 6.63591 5.58207 6.92691 5.87307L11.2929 10.2391C11.6834 10.6296 12.3166 10.6296 12.7071 10.2391L17.0731 5.87307C17.3641 5.58207 17.8359 5.58207 18.1269 5.87307C18.4179 6.16408 18.4179 6.63589 18.1269 6.9269L13.7609 11.2929C13.3704 11.6834 13.3704 12.3166 13.7609 12.7071L18.1269 17.0731C18.4179 17.3641 18.4179 17.8359 18.1269 18.1269C17.8359 18.4179 17.3641 18.4179 17.0731 18.1269L12.7071 13.7609C12.3166 13.3704 11.6834 13.3704 11.2929 13.7609L6.92691 18.1269Z" fill="#1C1B1F"/>
</g>
</svg>
