<svg width="16" height="15" viewBox="0 0 16 15" fill="none" xmlns="http://www.w3.org/2000/svg">
    <path d="M11.4858 14.5C11.1012 14.5 10.8179 14.3142 10.3524 13.9095L8.03844 11.9057H3.9772C1.94658 11.9057 0.806458 10.7512 0.806458 8.78057V3.62512C0.806458 1.6545 1.94658 0.5 3.9772 0.5H12.5787C14.6026 0.5 15.7494 1.6545 15.7494 3.62512V8.78057C15.7494 10.7578 14.5688 11.9057 12.6259 11.9057H12.3493V13.5313C12.3493 14.1218 12.0322 14.5 11.4858 14.5ZM11.1485 13.0137V11.1227C11.1485 10.7313 11.3239 10.5787 11.7017 10.5787H12.5315C13.7997 10.5787 14.4069 9.94834 14.4069 8.74076V3.66493C14.4069 2.45735 13.7997 1.82701 12.5315 1.82701H4.01768C2.75613 1.82701 2.14896 2.45735 2.14896 3.66493V8.74076C2.14896 9.94834 2.75613 10.5787 4.01768 10.5787H8.11265C8.52417 10.5787 8.72656 10.645 9.0099 10.937L11.1485 13.0137Z" fill="#47474A"/>
</svg>
