<svg width="21" height="21" viewBox="0 0 21 21" fill="none" xmlns="http://www.w3.org/2000/svg">
    <g clip-path="url(#clip0_935_29101)">
        <path d="M4.84344 5.73535H3.78463C3.22299 5.73535 2.68437 5.95846 2.28723 6.35559C1.8901 6.75273 1.66699 7.29135 1.66699 7.85299V17.3823C1.66699 17.944 1.8901 18.4826 2.28723 18.8797C2.68437 19.2769 3.22299 19.5 3.78463 19.5H13.314C13.8756 19.5 14.4142 19.2769 14.8114 18.8797C15.2085 18.4826 15.4316 17.944 15.4316 17.3823V16.3235" stroke="#FAFAFA" stroke-width="2" stroke-linecap="round" stroke-linejoin="round" />
        <path d="M14.3727 3.6175L17.5491 6.79395M19.0156 5.29573C19.4326 4.87872 19.6669 4.31313 19.6669 3.72338C19.6669 3.13364 19.4326 2.56805 19.0156 2.15104C18.5986 1.73403 18.033 1.49976 17.4432 1.49976C16.8535 1.49976 16.2879 1.73403 15.8709 2.15104L6.96094 11.0292V14.2057H10.1374L19.0156 5.29573Z" stroke="#FAFAFA" stroke-width="2" stroke-linecap="round" stroke-linejoin="round" />
    </g>
    <defs>
        <clipPath id="clip0_935_29101">
            <rect width="21" height="21" fill="white" />
        </clipPath>
    </defs>
</svg>
