<svg width="16" height="15" viewBox="0 0 16 15" fill="none" xmlns="http://www.w3.org/2000/svg">
    <path d="M15.0033 5.37591C15.0033 9.75195 8.5149 13.294 8.23858 13.4403C8.16575 13.4795 8.08435 13.5 8.00165 13.5C7.91895 13.5 7.83755 13.4795 7.76472 13.4403C7.4884 13.294 1 9.75195 1 5.37591C1.00116 4.34831 1.40988 3.36313 2.13651 2.63651C2.86313 1.90988 3.84831 1.50116 4.87591 1.5C6.16684 1.5 7.29711 2.05513 8.00165 2.99348C8.70619 2.05513 9.83646 1.5 11.1274 1.5C12.155 1.50116 13.1402 1.90988 13.8668 2.63651C14.5934 3.36313 15.0021 4.34831 15.0033 5.37591Z" fill="#DD1919" stroke="#DD1919" stroke-width="1.5" stroke-linejoin="round" />
</svg>
