<svg width="15" height="15" viewBox="0 0 15 15" fill="none" xmlns="http://www.w3.org/2000/svg">
    <path d="M0 5.16916C0 8.35913 2.65046 11.5117 6.77011 14.2012C6.99897 14.3506 7.27952 14.5 7.47148 14.5C7.66343 14.5 7.94398 14.3506 8.17285 14.2012C12.2999 11.5117 14.943 8.35913 14.943 5.16916C14.943 2.41249 13.0603 0.5 10.6461 0.5C9.23599 0.5 8.13594 1.14995 7.47148 2.13607C6.82179 1.15742 5.71435 0.5 4.30422 0.5C1.88264 0.5 0 2.41249 0 5.16916ZM1.52087 5.16169C1.52087 3.27908 2.74643 2.0016 4.39282 2.0016C5.72174 2.0016 6.46741 2.8159 6.93253 3.52561C7.13925 3.83191 7.27952 3.92903 7.47148 3.92903C7.67082 3.92903 7.79633 3.82444 8.01043 3.52561C8.51247 2.83084 9.22861 2.0016 10.5501 2.0016C12.2039 2.0016 13.4295 3.27908 13.4295 5.16169C13.4295 7.79136 10.7273 10.7049 7.61175 12.7967C7.54531 12.8415 7.50101 12.8714 7.47148 12.8714C7.44195 12.8714 7.39765 12.8415 7.33859 12.7967C4.22301 10.7049 1.52087 7.79136 1.52087 5.16169Z" fill="#47474A"/>
</svg>
