<svg width="96" height="105" viewBox="0 0 96 105" fill="none" xmlns="http://www.w3.org/2000/svg">
    <path d="M58.3868 52.6782C42.7677 59.3678 23.7645 67.1977 24.2467 82.2517C24.5378 90.8209 32.7067 96.2902 35.7086 98.0806C38.7105 99.8711 43.7046 101.982 54.7481 102C61.5974 101.943 68.3462 100.381 74.4972 97.4304C74.4972 97.4304 84.1307 92.4777 88.6245 85.3159C92.809 78.6441 93 68.3913 93 68.3913C93 68.3913 93 59.8756 90.1618 53.6402C87.8057 48.5272 85.8863 44.6078 81.7109 40.2787C76.4712 34.7648 69.2302 30.7474 66.392 29.0283C63.9471 27.5281 61.7196 25.7125 59.7695 23.6302C56.4674 20.0671 55.7942 15.4708 57.4226 10.2687C58.009 8.20968 59.2575 6.39061 60.983 5.08128C62.7084 3.77195 64.8189 3.0421 67.0015 3C69.037 3.06743 71.0075 3.71878 72.6684 4.87321C74.3292 6.02763 75.6073 7.63428 76.3438 9.4937C77.2075 11.4282 77.5871 13.5366 77.451 15.6437C77.3149 17.7508 76.6671 19.7956 75.5615 21.6082C72.8325 25.6433 69.0937 27.4516 67.3744 28.6274C66.4647 29.2153 65.5551 29.7676 65.5551 29.7676L28.7951 53.9787C28.7951 53.9787 19.6073 60.1606 15.9231 63.5277C12.8894 66.3175 10.2712 69.5109 8.1454 73.0144C5.88542 77.1914 4.34845 81.7065 3.59702 86.3759C2.72295 91.4283 2.8093 96.5953 3.85173 101.617" stroke="#FAFAFA" stroke-width="6" stroke-miterlimit="10" stroke-linecap="round"/>
    <path d="M77.7627 16.7087H87.76" stroke="#FAFAFA" stroke-width="6" stroke-miterlimit="10" stroke-linecap="round"/>
    <path d="M77.5811 12.4866L85.9501 7.89917" stroke="#FAFAFA" stroke-width="6" stroke-miterlimit="10" stroke-linecap="round"/>
</svg>
