<svg width="306" height="290" viewBox="0 0 306 290" fill="none" xmlns="http://www.w3.org/2000/svg">
    <path d="M200.666 21.8715C206.84 11.8635 217.892 5.18555 230.528 5.18555C248.96 5.18555 264.08 19.4235 265.466 37.5135C265.538 38.4135 265.574 39.3135 265.574 40.2315" stroke="#3B7043" stroke-width="3.6" stroke-miterlimit="10" stroke-linecap="round" stroke-linejoin="round" />
    <path d="M124.994 211.015C115.31 204.319 108.47 195.301 108.47 186.121C108.47 182.233 109.514 178.471 111.44 174.925" stroke="#3B7043" stroke-width="3.6" stroke-miterlimit="10" stroke-linecap="round" stroke-linejoin="round" />
    <path d="M194.582 224.353C190.262 224.785 184.538 225.181 179.984 225.181C169.742 225.181 159.626 223.867 150.806 221.779" stroke="#3B7043" stroke-width="3.6" stroke-miterlimit="10" stroke-linecap="round" stroke-linejoin="round" />
    <path d="M252.254 190.459C251.102 201.457 237.98 212.059 222.14 218.395" stroke="#3B7043" stroke-width="3.6" stroke-miterlimit="10" stroke-linecap="round" stroke-linejoin="round" />
    <path d="M150.788 221.761C149.294 227.989 143.696 232.597 137.018 232.597C129.206 232.597 122.87 226.261 122.87 218.449C122.87 215.713 123.644 213.175 124.976 210.997" stroke="#3B7043" stroke-width="3.6" stroke-miterlimit="10" stroke-linecap="round" stroke-linejoin="round" />
    <path d="M194.582 224.353C195.428 231.355 201.404 236.773 208.622 236.773C216.434 236.773 222.77 230.437 222.77 222.625C222.77 221.167 222.554 219.745 222.14 218.413" stroke="#3B7043" stroke-width="3.6" stroke-miterlimit="10" stroke-linecap="round" stroke-linejoin="round" />
    <path d="M252.254 190.46L265.556 40.2316" stroke="#3B7043" stroke-width="3.6" stroke-miterlimit="10" stroke-linecap="round" stroke-linejoin="round" />
    <path d="M260.93 92.5035C260.93 92.5035 316.514 143.84 300.458 158.636C289.892 168.356 262.658 168.23 262.658 168.23C262.658 168.23 277.004 185.258 274.034 187.328C271.064 189.398 262.712 186.896 262.712 186.896C262.712 186.896 268.958 193.196 264.116 193.196C259.274 193.196 252.974 188.57 252.974 188.57" stroke="#3B7043" stroke-width="3.6" stroke-miterlimit="10" stroke-linecap="round" stroke-linejoin="round" />
    <path d="M255.89 149.509C255.89 149.509 265.07 139.303 275.528 135.361" stroke="#3B7043" stroke-width="3.6" stroke-miterlimit="10" stroke-linecap="round" stroke-linejoin="round" />
    <path d="M87.644 254.161H11.09C6.06798 254.161 2 250.093 2 245.071V213.967C2 208.945 6.06798 204.877 11.09 204.877H87.644C92.666 204.877 96.734 208.945 96.734 213.967V245.071C96.734 250.093 92.666 254.161 87.644 254.161Z" stroke="#3B7043" stroke-width="3.6" stroke-miterlimit="10" stroke-linecap="round" stroke-linejoin="round" />
    <path d="M117.092 165.223C117.092 165.223 96.2662 191.611 122.87 209.485L124.184 212.509C124.184 212.509 119.27 227.197 132.428 231.841C145.586 236.485 150.788 222.697 150.788 222.697C150.788 222.697 178.868 227.953 193.592 224.443C193.592 224.443 199.73 239.635 211.376 236.503C223.004 233.371 222.734 226.729 222.428 219.457C222.428 219.457 247.646 210.007 252.092 191.611C252.092 191.611 255.818 150.355 255.53 153.613C247.988 158.743 159.14 174.925 117.092 165.223Z" fill="#3B7043" />
    <path d="M37.2617 204.877C37.2617 198.199 42.6797 192.781 49.3577 192.781C56.0357 192.781 61.4537 198.199 61.4537 204.877" stroke="#3B7043" stroke-width="5.4" stroke-miterlimit="10" stroke-linejoin="round" />
    <path d="M111.439 174.926L200.665 21.8716" stroke="#3B7043" stroke-width="3.6" stroke-miterlimit="10" stroke-linecap="round" stroke-linejoin="round" />
    <path d="M168.824 81.1453C168.824 81.1453 78.1757 124.579 70.8677 140.581C68.3477 146.107 91.1537 140.221 91.1537 140.221C91.1537 140.221 62.0477 158.941 58.8617 166.681C56.4317 172.603 83.3957 163.081 83.3957 163.081C83.3957 163.081 46.7297 192.043 49.5197 197.623C52.3097 203.203 134.264 149.527 134.264 149.527" fill="white" />
    <path d="M168.824 81.1453C168.824 81.1453 78.1757 124.579 70.8677 140.581C68.3477 146.107 91.1537 140.221 91.1537 140.221C91.1537 140.221 62.0477 158.941 58.8617 166.681C56.4317 172.603 83.3957 163.081 83.3957 163.081C83.3957 163.081 46.7297 192.043 49.5197 197.623C52.3097 203.203 134.264 149.527 134.264 149.527" stroke="#3B7043" stroke-width="3.6" stroke-miterlimit="10" stroke-linecap="round" stroke-linejoin="round" />
    <path d="M4.26822 217.711C10.3702 217.711 15.3202 212.761 15.3202 206.659C15.3202 206.659 10.0462 203.995 5.96023 206.659C1.87423 209.323 4.26822 217.711 4.26822 217.711Z" fill="#3B7043" stroke="#3B7043" stroke-width="3.6" stroke-miterlimit="10" stroke-linecap="round" stroke-linejoin="round" />
    <path d="M15.32 252.577C15.32 246.475 10.37 241.525 4.26798 241.525C4.26798 241.525 1.60398 246.799 4.26798 250.885C6.93198 254.971 15.32 252.577 15.32 252.577Z" fill="#3B7043" stroke="#3B7043" stroke-width="3.6" stroke-miterlimit="10" stroke-linecap="round" stroke-linejoin="round" />
    <path d="M94.5559 241.039C88.4539 241.039 83.5039 245.989 83.5039 252.091C83.5039 252.091 88.7779 254.755 92.8639 252.091C96.9319 249.427 94.5559 241.039 94.5559 241.039Z" fill="#3B7043" stroke="#3B7043" stroke-width="3.6" stroke-miterlimit="10" stroke-linecap="round" stroke-linejoin="round" />
    <path d="M83.2344 206.155C83.2344 212.257 88.1843 217.207 94.2863 217.207C94.2863 217.207 96.9503 211.933 94.2863 207.847C91.6403 203.761 83.2344 206.155 83.2344 206.155Z" fill="#3B7043" stroke="#3B7043" stroke-width="3.6" stroke-miterlimit="10" stroke-linecap="round" stroke-linejoin="round" />
    <path d="M28.9279 203.113H23.4199V255.925H28.9279V203.113Z" fill="#3B7043" stroke="#3B7043" stroke-width="3.6" stroke-miterlimit="10" stroke-linecap="round" stroke-linejoin="round" />
    <path d="M31.5923 224.083H20.7383V234.937H31.5923V224.083Z" fill="white" stroke="#3B7043" stroke-width="3.6" stroke-miterlimit="10" stroke-linecap="round" stroke-linejoin="round" />
    <path d="M26.1738 234.937V229.519" stroke="#3B7043" stroke-width="3.6" stroke-miterlimit="10" stroke-linecap="round" stroke-linejoin="round" />
    <path d="M75.8898 203.113H70.3818V255.925H75.8898V203.113Z" fill="#3B7043" stroke="#3B7043" stroke-width="3.6" stroke-miterlimit="10" stroke-linecap="round" stroke-linejoin="round" />
    <path d="M78.5718 224.083H67.7178V234.937H78.5718V224.083Z" fill="white" stroke="#3B7043" stroke-width="3.6" stroke-miterlimit="10" stroke-linecap="round" stroke-linejoin="round" />
    <path d="M73.1357 234.937V229.519" stroke="#3B7043" stroke-width="3.6" stroke-miterlimit="10" stroke-linecap="round" stroke-linejoin="round" />
    <path d="M132.428 231.841L120.35 255.925H124.994" stroke="#3B7043" stroke-width="3.6" stroke-miterlimit="10" stroke-linecap="round" stroke-linejoin="round" />
    <path d="M115.202 263.881L120.35 255.925L123.788 265.285" stroke="#3B7043" stroke-width="3.6" stroke-miterlimit="10" stroke-linecap="round" stroke-linejoin="round" />
    <path d="M208.622 236.773L201.116 264.349H206.12" stroke="#3B7043" stroke-width="3.6" stroke-miterlimit="10" stroke-linecap="round" stroke-linejoin="round" />
    <path d="M192.242 269.641L201.116 264.349L202.214 272.143" stroke="#3B7043" stroke-width="3.6" stroke-miterlimit="10" stroke-linecap="round" stroke-linejoin="round" />
    <path d="M167.114 79.3994C167.114 79.3994 177.14 85.3574 169.706 115.345C162.29 145.315 148.592 171.919 148.592 171.919" stroke="#3B7043" stroke-width="5.4" stroke-miterlimit="10" stroke-linejoin="round" />
    <path d="M261.38 87.4633C261.38 87.4633 245.288 94.9152 239.06 120.115C232.832 145.315 229.844 163.747 229.844 163.747" stroke="#3B7043" stroke-width="5.4" stroke-miterlimit="10" stroke-linejoin="round" />
    <path d="M210.566 122.653L199.586 130.015L204.536 113.851L210.872 119.611L220.322 115.345L221.528 126.631L210.566 122.653Z" fill="#3B7043" stroke="#3B7043" stroke-width="3.6" stroke-miterlimit="10" stroke-linecap="round" stroke-linejoin="round" />
    <path d="M216.272 59.6534C211.7 64.6394 221.834 102.007 224.768 102.007C227.252 102.007 238.412 65.1434 234.47 59.8694C232.796 57.6194 218.072 57.6914 216.272 59.6534Z" fill="#3B7043" stroke="#3B7043" stroke-width="3.6" stroke-miterlimit="10" stroke-linecap="round" stroke-linejoin="round" />
    <path d="M203.222 52.0033C212.696 52.0033 220.376 44.3232 220.376 34.8493C220.376 25.3754 212.696 17.6953 203.222 17.6953C193.748 17.6953 186.068 25.3754 186.068 34.8493C186.068 44.3232 193.748 52.0033 203.222 52.0033Z" fill="white" stroke="#3B7043" stroke-width="3.6" stroke-miterlimit="10" />
    <path d="M249.698 52.0033C259.172 52.0033 266.852 44.3232 266.852 34.8493C266.852 25.3754 259.172 17.6953 249.698 17.6953C240.224 17.6953 232.544 25.3754 232.544 34.8493C232.544 44.3232 240.224 52.0033 249.698 52.0033Z" fill="white" stroke="#3B7043" stroke-width="3.6" stroke-miterlimit="10" />
    <path d="M191.972 8.28125C191.972 8.28125 196.886 2.84525 204.464 2.95325" stroke="#3B7043" stroke-width="5.4" stroke-miterlimit="10" stroke-linecap="round" stroke-linejoin="round" />
    <path d="M256.214 5.61755C256.214 5.61755 263.738 8.83955 266.636 13.1416" stroke="#3B7043" stroke-width="5.4" stroke-miterlimit="10" stroke-linecap="round" stroke-linejoin="round" />
    <path d="M197.39 32.8873C199.885 32.8873 201.908 30.8645 201.908 28.3693C201.908 25.8741 199.885 23.8513 197.39 23.8513C194.895 23.8513 192.872 25.8741 192.872 28.3693C192.872 30.8645 194.895 32.8873 197.39 32.8873Z" fill="#3B7043" />
    <path d="M245.612 32.8873C248.107 32.8873 250.13 30.8645 250.13 28.3693C250.13 25.8741 248.107 23.8513 245.612 23.8513C243.117 23.8513 241.094 25.8741 241.094 28.3693C241.094 30.8645 243.117 32.8873 245.612 32.8873Z" fill="#3B7043" />
    <path opacity="0.1" d="M160.5 282C203.302 282 238 275.508 238 267.5C238 259.492 203.302 253 160.5 253C117.698 253 83 259.492 83 267.5C83 275.508 117.698 282 160.5 282Z" fill="#3B7043" />
</svg>
