<svg width="319" height="315" viewBox="0 0 319 315" fill="none" xmlns="http://www.w3.org/2000/svg">
    <path d="M53.246 184.135C53.246 184.135 2.07203 149.647 2.00003 107.509C1.96403 84.2174 39.116 46.8674 39.116 46.8674C39.116 46.8674 30.0801 29.4974 35.0481 31.0454C40.3761 32.7014 46.946 39.5414 46.946 39.5414C46.946 39.5414 52.04 10.3994 54.884 15.5294C59.042 23.0354 56.72 39.5414 56.72 39.5414C56.72 39.5414 75.764 6.54744 76.196 11.6234C76.61 16.6994 60.4641 97.6274 60.4641 97.6274L65.2521 105.043" stroke="#FFFFFF" stroke-width="3.6" stroke-miterlimit="10" stroke-linecap="round" stroke-linejoin="round"/>
    <path d="M78.4099 31.2974C83.2314 31.2974 87.14 27.3888 87.14 22.5674C87.14 17.7459 83.2314 13.8374 78.4099 13.8374C73.5885 13.8374 69.6799 17.7459 69.6799 22.5674C69.6799 27.3888 73.5885 31.2974 78.4099 31.2974Z" stroke="#FFFFFF" stroke-width="3.6" stroke-miterlimit="10" stroke-linecap="round" stroke-linejoin="round"/>
    <path d="M74.918 41.0713C74.918 24.9253 88.004 11.8394 104.15 11.8394C116.228 11.8394 126.596 19.1653 131.042 29.6233"/>
    <path d="M74.918 41.0713C74.918 24.9253 88.004 11.8394 104.15 11.8394C116.228 11.8394 126.596 19.1653 131.042 29.6233" stroke="#FFFFFF" stroke-width="3.6" stroke-miterlimit="10" stroke-linecap="round" stroke-linejoin="round"/>
    <path d="M70.4181 241.123C56.9361 235.849 47.99 227.461 48.728 216.787" stroke="#FFFFFF" stroke-width="3.6" stroke-miterlimit="10" stroke-linecap="round" stroke-linejoin="round"/>
    <path d="M51.8958 195.385C51.8958 195.385 48.5478 220.225 49.2498 222.331C49.9518 224.419 54.2718 235.687 68.9238 240.511C68.9238 240.511 69.9498 260.239 82.9458 261.013C95.9418 261.787 102.656 253.471 103.754 247.891L136.172 247.189C136.172 247.189 143.912 260.851 157.844 257.341C171.758 253.831 170.156 238.081 170.156 238.081L179.894 230.053C179.894 230.053 191.378 221.323 186.194 204.835C181.01 188.347 177.23 176.341 177.23 176.341C173.486 180.769 132.806 206.941 51.8958 195.385Z" fill="#FFFFFF"/>
    <path d="M137.558 246.487C131.798 247.243 125.282 247.711 119.09 247.855C113.924 247.963 108.074 247.819 103.232 247.531" stroke="#FFFFFF" stroke-width="3.6" stroke-miterlimit="10" stroke-linecap="round" stroke-linejoin="round"/>
    <path d="M187.472 208.903C189.794 220.873 182.252 230.575 169.652 237.181" stroke="#FFFFFF" stroke-width="3.6" stroke-miterlimit="10" stroke-linecap="round" stroke-linejoin="round"/>
    <path d="M103.232 247.531C101.9 255.433 95.024 261.445 86.744 261.445C77.51 261.445 70.04 253.957 70.04 244.741C70.04 243.499 70.166 242.293 70.436 241.141" stroke="#FFFFFF" stroke-width="3.6" stroke-miterlimit="10" stroke-linecap="round" stroke-linejoin="round"/>
    <path d="M169.652 237.181C169.976 238.477 170.138 239.827 170.138 241.213C170.138 250.447 162.65 257.917 153.434 257.917C146.036 257.917 139.772 253.129 137.576 246.469" stroke="#FFFFFF" stroke-width="3.6" stroke-miterlimit="10" stroke-linecap="round" stroke-linejoin="round"/>
    <path d="M48.7278 216.769L74.9538 39.5415" stroke="#FFFFFF" stroke-width="3.6" stroke-miterlimit="10" stroke-linecap="round" stroke-linejoin="round"/>
    <path d="M131.042 29.6235L187.472 208.903" stroke="#FFFFFF" stroke-width="3.6" stroke-miterlimit="10" stroke-linecap="round" stroke-linejoin="round"/>
    <path d="M94.322 36.9853C100.535 36.9853 105.572 31.9485 105.572 25.7353C105.572 19.5221 100.535 14.4854 94.322 14.4854C88.1088 14.4854 83.072 19.5221 83.072 25.7353C83.072 31.9485 88.1088 36.9853 94.322 36.9853Z" stroke="#FFFFFF" stroke-width="3.6" stroke-miterlimit="10" stroke-linecap="round" stroke-linejoin="round"/>
    <path d="M68.6538 5.70148C68.6538 5.70148 74.9178 2.33547 81.7758 3.52347" stroke="#FFFFFF" stroke-width="5.4" stroke-miterlimit="10" stroke-linecap="round" stroke-linejoin="round"/>
    <path d="M94.52 7.77139C94.52 7.77139 101.828 6.79939 106.688 9.82339" stroke="#FFFFFF" stroke-width="5.4" stroke-miterlimit="10" stroke-linecap="round" stroke-linejoin="round"/>
    <path d="M85.268 44.2574C87.878 46.4894 79.094 73.0574 74.5759 73.1294C70.0579 73.2014 70.0939 45.4634 73.2799 44.0594C76.4479 42.6734 83.036 42.3314 85.268 44.2574Z" stroke="#FFFFFF" stroke-width="3.6" stroke-miterlimit="10" stroke-linecap="round" stroke-linejoin="round"/>
    <path d="M257.474 257.377L213.608 224.815C209.234 221.575 208.316 215.383 211.574 211.009L254.954 152.545C258.194 148.171 264.386 147.253 268.76 150.511L312.626 183.073C317 186.313 317.918 192.505 314.66 196.879L271.28 255.325C268.022 259.699 261.848 260.617 257.474 257.377Z" stroke="#FFFFFF" stroke-width="3.6" stroke-miterlimit="10" stroke-linecap="round" stroke-linejoin="round"/>
    <path d="M263.234 159.277L305.354 190.525" stroke="#FFFFFF" stroke-width="5.4" stroke-miterlimit="10" stroke-linecap="round" stroke-linejoin="round"/>
    <path d="M253.334 169.646L298.298 203.018" stroke="#FFFFFF" stroke-width="3.6" stroke-miterlimit="10" stroke-linecap="round" stroke-linejoin="round"/>
    <path d="M249.482 174.829L276.05 194.539" stroke="#FFFFFF" stroke-width="3.6" stroke-miterlimit="10" stroke-linecap="round" stroke-linejoin="round"/>
    <path d="M239.348 188.491L284.312 221.863" stroke="#FFFFFF" stroke-width="3.6" stroke-miterlimit="10" stroke-linecap="round" stroke-linejoin="round"/>
    <path d="M230.582 200.3L266.204 226.742" stroke="#FFFFFF" stroke-width="3.6" stroke-miterlimit="10" stroke-linecap="round" stroke-linejoin="round"/>
    <path d="M226.316 206.041L268.58 237.397" stroke="#FFFFFF" stroke-width="3.6" stroke-miterlimit="10" stroke-linecap="round" stroke-linejoin="round"/>
    <path d="M219.692 214.969L253.118 239.755" stroke="#FFFFFF" stroke-width="3.6" stroke-miterlimit="10" stroke-linecap="round" stroke-linejoin="round"/>
    <path d="M87.1398 45.5716C88.3278 41.4316 80.2278 34.9336 77.2038 34.5916C74.1798 34.2496 50.7438 61.5015 53.4618 65.1735C56.1618 68.8455 86.0778 49.2435 87.1398 45.5716Z" fill="#FFFFFF"/>
    <path d="M146.504 85.0454C146.504 85.0454 219.998 119.947 237.098 144.949C241.526 151.429 220.304 145.525 220.304 145.525C220.304 145.525 277.166 194.359 259.22 188.095C241.274 181.831 233.696 178.375 233.696 178.375C233.696 178.375 276.698 229.513 258.752 224.113C240.806 218.713 161.174 170.311 161.174 170.311"/>
    <path d="M146.504 85.0454C146.504 85.0454 219.998 119.947 237.098 144.949C241.526 151.429 220.304 145.525 220.304 145.525C220.304 145.525 277.166 194.359 259.22 188.095C241.274 181.831 233.696 178.375 233.696 178.375C233.696 178.375 276.698 229.513 258.752 224.113C240.806 218.713 161.174 170.311 161.174 170.311" stroke="#FFFFFF" stroke-width="3.6" stroke-miterlimit="10" stroke-linecap="round" stroke-linejoin="round"/>
    <path d="M66.6021 96.0615C66.6021 96.0615 75.44 104.486 76.07 135.23C76.682 165.11 73.28 201.523 73.28 201.523" stroke="#FFFFFF" stroke-width="5.4" stroke-miterlimit="10" stroke-linejoin="round"/>
    <path d="M147.926 83.2815C147.926 83.2815 138.998 96.0615 141.788 128.155C144.686 161.365 154.046 195.385 154.046 195.385" stroke="#FFFFFF" stroke-width="5.4" stroke-miterlimit="10" stroke-linejoin="round"/>
    <path d="M97.094 112.585L103.952 116.833L113.006 112.189L115.364 122.395L105.284 117.805L98.822 122.395L97.094 112.585Z" fill="#FFFFFF" stroke="#FFFFFF" stroke-width="5.4" stroke-miterlimit="10" stroke-linejoin="round"/>
    <path d="M97.5 31C98.8807 31 100 29.8807 100 28.5C100 27.1193 98.8807 26 97.5 26C96.1193 26 95 27.1193 95 28.5C95 29.8807 96.1193 31 97.5 31Z" fill="#FFFFFF"/>
    <path d="M78.5 25C79.8807 25 81 23.8807 81 22.5C81 21.1193 79.8807 20 78.5 20C77.1193 20 76 21.1193 76 22.5C76 23.8807 77.1193 25 78.5 25Z" fill="#FFFFFF"/>
    <path d="M84.5479 261.445L92.3058 290.191L95.2399 285.493" stroke="#FFFFFF" stroke-width="3.6" stroke-miterlimit="10" stroke-linecap="round" stroke-linejoin="round"/>
    <path d="M89.894 295.303L92.306 290.191L98.012 296.617" stroke="#FFFFFF" stroke-width="3.6" stroke-miterlimit="10" stroke-linecap="round" stroke-linejoin="round"/>
    <path d="M157.826 257.341L172.928 284.629L175.844 280.525" stroke="#FFFFFF" stroke-width="3.6" stroke-miterlimit="10" stroke-linecap="round" stroke-linejoin="round"/>
    <path d="M170.138 292.531L172.928 284.629L178.76 290.191" stroke="#FFFFFF" stroke-width="3.6" stroke-miterlimit="10" stroke-linecap="round" stroke-linejoin="round"/>
    <path opacity="0.1" d="M136 315C197.856 315 248 306.493 248 296C248 285.507 197.856 277 136 277C74.1441 277 24 285.507 24 296C24 306.493 74.1441 315 136 315Z" fill="#FFFFFF"/>
</svg>
