<svg width="302" height="348" viewBox="0 0 302 348" fill="none" xmlns="http://www.w3.org/2000/svg">
    <g clip-path="url(#clip0_935_29190)">
        <path opacity="0.1" d="M137.466 313.901C205.153 313.901 260.025 299.757 260.025 282.309C260.025 264.862 205.153 250.718 137.466 250.718C69.7786 250.718 14.9072 264.862 14.9072 282.309C14.9072 299.757 69.7786 313.901 137.466 313.901Z" fill="#B1C6B4" />
        <path d="M50.9751 228.829C50.9751 228.829 152.473 237.013 219.067 208.616C219.067 208.616 236.203 259.769 223.169 272.272C223.169 272.272 228.315 289.665 215.064 295.876C201.812 302.068 192.327 288.58 192.327 288.58C192.327 288.58 136.184 302.699 86.6285 288.915C86.6285 288.915 80.1604 302.226 63.9113 297.493C47.6621 292.761 55.1951 273.81 55.1951 273.81C55.1951 273.81 41.1349 263.911 50.9751 228.829Z" fill="#B1C6B4" />
        <path d="M228.138 253.656C223.346 224.136 189.744 76.3749 184.34 54.3085C178.05 28.6727 158.744 9.89941 133.7 9.89941C108.656 9.89941 90.1389 28.5149 85.9386 55.0381C82.8228 74.7776 49.7724 227.547 46.7947 253.656C45.9468 261.071 49.4569 268.17 55.1954 273.81C54.0516 276.137 53.4206 278.74 53.4206 281.501C53.4206 291.124 61.2296 298.933 70.8529 298.933C77.8337 298.933 83.8483 294.831 86.6485 288.915C101.162 292.8 119.364 295.6 137.466 295.6C157.305 295.6 176.808 292.761 192.347 288.58C195.324 293.944 201.043 297.572 207.61 297.572C217.233 297.572 225.042 289.763 225.042 280.14C225.042 277.32 224.372 274.638 223.169 272.272C227.014 267.145 229.262 260.617 228.138 253.656Z" stroke="#B1C6B4" stroke-width="3.94396" stroke-miterlimit="10" stroke-linecap="round" stroke-linejoin="round" />
        <path d="M73.4941 117.175C84.6161 128.475 90.6701 160.5 86.7656 235.455" stroke="#B1C6B4" stroke-width="5.91595" stroke-miterlimit="10" />
        <path d="M195.561 102.72C189.705 108.893 177.853 146.163 189.626 233.975" stroke="#B1C6B4" stroke-width="5.91595" stroke-miterlimit="10" />
        <path d="M74.0267 120.291C48.3515 153.519 26.0484 187.417 27.2908 212.915C28.5331 238.393 65.7838 299.465 63.9499 285.247C62.5498 274.362 60.913 271.049 60.913 271.049C60.913 271.049 71.5815 285.09 78.9961 285.09C86.2333 285.09 87.9489 280.061 87.9489 280.061C87.9489 280.061 103.113 293.431 109.956 269.807C116.799 246.182 112.756 237.17 106.545 241.844C100.333 246.498 95.7185 254.879 95.7185 254.879C95.7185 254.879 100.294 242.317 98.7357 241.607C97.1778 240.897 92.8 246.912 92.8 246.912L75.7029 201.478" fill="white" />
        <path d="M74.0267 120.291C48.3515 153.519 26.0484 187.417 27.2908 212.915C28.5331 238.393 65.7838 299.465 63.9499 285.247C62.5498 274.362 60.913 271.049 60.913 271.049C60.913 271.049 71.5815 285.09 78.9961 285.09C86.2333 285.09 87.9489 280.061 87.9489 280.061C87.9489 280.061 103.113 293.431 109.956 269.807C116.799 246.182 112.756 237.17 106.545 241.844C100.333 246.498 95.7185 254.879 95.7185 254.879C95.7185 254.879 100.294 242.317 98.7357 241.607C97.1778 240.897 92.8 246.912 92.8 246.912L75.7029 201.478" stroke="#B1C6B4" stroke-width="3.94396" stroke-miterlimit="10" stroke-linecap="round" stroke-linejoin="round" />
        <path d="M92.7812 246.893L99.131 264.128" stroke="#B1C6B4" stroke-width="3.94396" stroke-miterlimit="10" stroke-linecap="round" stroke-linejoin="round" />
        <path d="M194.693 106.724C194.693 106.724 248.331 150.916 253.458 184.854C257.52 211.693 221.176 271.03 220.388 257.936C219.954 250.876 220.427 246.893 220.427 246.893C220.427 246.893 195.087 295.108 192.307 278.405C191.045 270.793 190.966 266.967 190.966 266.967C190.966 266.967 169.195 323.366 170.181 296.409C171.167 269.452 180.573 223.446 202.344 171.997" fill="white" />
        <path d="M194.693 106.724C194.693 106.724 248.331 150.916 253.458 184.854C257.52 211.693 221.176 271.03 220.388 257.936C219.954 250.876 220.427 246.893 220.427 246.893C220.427 246.893 195.087 295.108 192.307 278.405C191.045 270.793 190.966 266.967 190.966 266.967C190.966 266.967 169.195 323.366 170.181 296.409C171.167 269.452 180.573 223.446 202.344 171.997" stroke="#B1C6B4" stroke-width="3.94396" stroke-miterlimit="10" stroke-linecap="round" stroke-linejoin="round" />
        <path d="M139.498 246.873L136.303 238.669L127.607 237.328L122.085 244.21L125.28 252.414L133.996 253.755L139.498 246.873Z" stroke="white" stroke-width="5.91595" stroke-miterlimit="10" stroke-linecap="round" stroke-linejoin="round" />
        <path d="M123.682 248.312L98.0264 258.29" stroke="white" stroke-width="7.88793" stroke-miterlimit="10" stroke-linejoin="round" />
        <path d="M212.184 290.059L225.633 320.289L219.579 321.847" stroke="#B1C6B4" stroke-width="3.94396" stroke-miterlimit="10" stroke-linecap="round" stroke-linejoin="round" />
        <path d="M236.598 310.39L225.634 320.29L227.093 310.213" stroke="#B1C6B4" stroke-width="3.94396" stroke-miterlimit="10" stroke-linecap="round" stroke-linejoin="round" />
        <path d="M64.9561 290.177L58.9021 300.195L43.8164 325.081L48.8647 327.467" stroke="#B1C6B4" stroke-width="3.94396" stroke-miterlimit="10" stroke-linecap="round" stroke-linejoin="round" />
        <path d="M44.8421 311.218L43.8167 325.081L33.6807 313.229" stroke="#B1C6B4" stroke-width="3.94396" stroke-miterlimit="10" stroke-linecap="round" stroke-linejoin="round" />
        <path d="M99.1299 263.102L121.63 254.425" stroke="#B1C6B4" stroke-width="1.97198" stroke-miterlimit="10" />
        <path d="M95.9951 253.912L118.436 245.058" stroke="#B1C6B4" stroke-width="1.97198" stroke-miterlimit="10" />
        <path d="M122.045 121.257L135.415 127.37L142.869 120.291L141.982 131.433L133.699 129.855L122.045 139.814V121.257Z" fill="#B1C6B4" stroke="#B1C6B4" stroke-width="3.94396" stroke-miterlimit="10" stroke-linecap="round" stroke-linejoin="round" />
        <path d="M117.608 69.3741C117.371 64.3653 137.623 60.5002 140.266 63.3201C142.908 66.1598 143.105 106.388 138.944 108.084C134.803 109.8 117.982 77.6959 117.608 69.3741Z" fill="#B1C6B4" stroke="#B1C6B4" stroke-width="3.94396" stroke-miterlimit="10" stroke-linecap="round" stroke-linejoin="round" />
        <path d="M101.281 61.7033C111.79 61.7033 120.31 53.1834 120.31 42.6737C120.31 32.1639 111.79 23.644 101.281 23.644C90.7708 23.644 82.251 32.1639 82.251 42.6737C82.251 53.1834 90.7708 61.7033 101.281 61.7033Z" fill="white" stroke="#B1C6B4" stroke-width="3.94396" stroke-miterlimit="10" stroke-linecap="round" stroke-linejoin="round" />
        <path d="M154.464 57.0886C164.974 57.0886 173.494 48.5687 173.494 38.0589C173.494 27.5492 164.974 19.0293 154.464 19.0293C143.954 19.0293 135.435 27.5492 135.435 38.0589C135.435 48.5687 143.954 57.0886 154.464 57.0886Z" fill="white" stroke="#B1C6B4" stroke-width="3.94396" stroke-miterlimit="10" stroke-linecap="round" stroke-linejoin="round" />
        <path d="M76.0977 27.805L91.2819 10.2544" stroke="#B1C6B4" stroke-width="5.91595" stroke-miterlimit="10" stroke-linecap="round" stroke-linejoin="round" />
        <path d="M157.856 2.95801L180.081 17.5704" stroke="#B1C6B4" stroke-width="5.91595" stroke-miterlimit="10" stroke-linecap="round" stroke-linejoin="round" />
        <path d="M103.529 44.9811C103.746 45.4347 104.062 45.8291 104.456 46.1052C106.073 47.1898 108.222 46.2827 109.09 44.7051C110.372 42.3979 109.051 39.5779 106.763 38.4933C103.707 37.0538 100.098 38.73 98.7766 41.6682C97.1005 45.3755 99.2105 49.6745 102.918 51.1929C107.394 53.0268 112.502 50.5619 114.257 46.2235C116.327 41.1358 113.409 35.3382 108.321 33.4056C102.445 31.1576 95.8187 34.4508 93.6298 40.1498C91.1451 46.6376 94.8918 53.9142 101.38 56.2806C108.656 58.9428 116.801 54.8411 119.423 47.7616C119.936 46.3813 120.232 44.9417 120.311 43.4824" stroke="#B1C6B4" stroke-width="3.04908" stroke-linecap="round" stroke-linejoin="round" />
        <path d="M154.228 35.0026C154.267 34.5096 154.169 34.0166 153.972 33.5631C153.084 31.8277 150.757 31.5713 149.239 32.5179C146.991 33.8983 146.754 37.014 148.233 39.0846C150.185 41.8454 154.169 42.1412 156.752 40.2086C160.026 37.7831 160.282 33.0109 157.797 29.8754C154.8 26.0892 149.121 25.754 145.472 28.6725C141.173 32.1038 140.897 38.5719 144.388 42.7525C148.411 47.5838 155.806 47.9585 160.499 44.054C165.843 39.617 166.119 31.4333 161.623 26.2076C156.555 20.331 147.464 19.9169 141.726 24.8272C140.602 25.7737 139.635 26.8978 138.866 28.1401" stroke="#B1C6B4" stroke-width="3.04908" stroke-linecap="round" stroke-linejoin="round" />
        <path d="M154.543 317.431C154.543 317.431 143.599 329.618 147.05 336.342C150.501 343.066 162.096 324.885 159.493 323.84C156.89 322.794 147.405 334.626 151.526 338.255C155.648 341.883 168.091 328.651 165.468 326.285C162.846 323.918 155.806 336.598 161.031 338.432C166.257 340.266 175.013 331.136 172.074 328.592C169.116 326.048 162.589 340.68 169.412 341.607C176.235 342.534 181.047 332.497 179.607 331.057C178.168 329.618 171.384 340.641 177.556 341.923C183.729 343.185 187.85 334.37 185.898 332.359C183.946 330.347 177.182 343.421 183.63 344.506C190.079 345.591 194.476 336.519 191.755 334.764C189.033 333.009 185.563 345.906 191.952 346.498C198.361 347.089 202.206 339.201 199.741 338.767C197.276 338.353 196.468 346.162 204.75 345.492" stroke="#B1C6B4" stroke-width="1.97198" stroke-miterlimit="10" stroke-linecap="round" stroke-linejoin="round" />
        <path d="M281.086 285.11L287.258 284.459L289.23 279.253L293.076 280.712L298.144 277.379" stroke="#B1C6B4" stroke-width="1.97198" stroke-miterlimit="10" stroke-linecap="round" stroke-linejoin="round" />
        <path d="M301.059 279.68C301.565 279.266 300.884 277.598 299.538 275.955C298.193 274.312 296.693 273.315 296.187 273.729C295.681 274.143 296.362 275.811 297.708 277.454C299.053 279.097 300.553 280.094 301.059 279.68Z" fill="#B1C6B4" />
        <path d="M247.68 327.467L254.444 325.574L257.204 318.929H266.532" stroke="#B1C6B4" stroke-width="1.97198" stroke-miterlimit="10" stroke-linecap="round" stroke-linejoin="round" />
        <path d="M268.717 324.576C269.977 324.156 270.156 321.286 269.116 318.166C268.076 315.045 266.211 312.856 264.95 313.276C263.69 313.697 263.511 316.567 264.551 319.687C265.591 322.807 267.456 324.996 268.717 324.576Z" fill="#B1C6B4" />
        <path d="M17.6881 301.792L14.178 306.387H6.80277L4.04199 309.838" stroke="#B1C6B4" stroke-width="1.97198" stroke-miterlimit="10" stroke-linecap="round" stroke-linejoin="round" />
        <path d="M7.99326 311.948C8.47557 310.816 7.09585 309.143 4.91156 308.213C2.72727 307.283 0.56555 307.446 0.0832473 308.578C-0.399056 309.711 0.980693 311.383 3.16498 312.313C5.34927 313.244 7.51096 313.08 7.99326 311.948Z" fill="#B1C6B4" />
        <path d="M61.8398 323.208L67.7361 321.709L73.4943 327.468L80.7314 325.752" stroke="#B1C6B4" stroke-width="1.97198" stroke-miterlimit="10" stroke-linecap="round" stroke-linejoin="round" />
        <path d="M82.5951 328.786C83.2427 328.595 83.3197 326.924 82.7672 325.054C82.2148 323.185 81.2419 321.824 80.5944 322.016C79.9468 322.207 79.8697 323.878 80.4222 325.747C80.9747 327.617 81.9475 328.977 82.5951 328.786Z" fill="#B1C6B4" />
    </g>
    <defs>
        <clipPath id="clip0_935_29190">
            <rect width="301.24" height="347.503" fill="white" />
        </clipPath>
    </defs>
</svg>
