<svg width="348" height="147" viewBox="0 0 348 147" fill="none" xmlns="http://www.w3.org/2000/svg">
    <g clip-path="url(#clip0_935_29313)">
        <path d="M37.3659 142.042C21.5657 142.042 8.74316 129.235 8.74316 113.419C8.74316 101.083 16.5521 90.5695 27.4908 86.5435" stroke="#B1C6B4" stroke-width="3.03851" stroke-miterlimit="10" stroke-linecap="round" stroke-linejoin="round" />
        <path d="M282.193 63.1465C285.17 71.1985 286.841 80.8762 286.841 91.2831C286.841 119.313 274.277 142.041 258.766 142.041" stroke="#B1C6B4" stroke-width="3.03851" stroke-miterlimit="10" stroke-linecap="round" stroke-linejoin="round" />
        <path d="M258.766 41.1475C263.323 41.6944 266.878 43.1833 270.038 45.4014" stroke="#B1C6B4" stroke-width="3.03851" stroke-miterlimit="10" stroke-linecap="round" stroke-linejoin="round" />
        <path d="M37.3662 142.041C37.3662 142.041 186.405 149.607 258.752 142.041" stroke="#B1C6B4" stroke-width="3.03851" stroke-miterlimit="10" stroke-linecap="round" stroke-linejoin="round" />
        <path d="M27.4912 86.5578C27.4912 86.5578 120.09 55.3371 237.179 42.6665" stroke="#B1C6B4" stroke-width="3.03851" stroke-miterlimit="10" stroke-linecap="round" stroke-linejoin="round" />
        <path d="M237.193 42.6666C236.783 36.7111 241.265 31.5457 247.22 31.1203C253.176 30.7101 258.341 35.1919 258.766 41.1474" stroke="#B1C6B4" stroke-width="3.03851" stroke-miterlimit="10" stroke-linecap="round" stroke-linejoin="round" />
        <path d="M270.023 45.4016C271.907 43.7912 274.353 42.8188 277.042 42.8188C283.013 42.8188 287.859 47.6653 287.859 53.6359C287.859 57.7379 285.565 61.3082 282.193 63.1465" stroke="#B1C6B4" stroke-width="3.03851" stroke-miterlimit="10" stroke-linecap="round" stroke-linejoin="round" />
        <path d="M284.048 45.4017L296.323 31.0903L308.538 36.8787L307.034 40.2059" stroke="#B1C6B4" stroke-width="3.03851" stroke-miterlimit="10" stroke-linecap="round" stroke-linejoin="round" />
        <path d="M313.051 40.1759L308.539 36.8639L314.039 34.0381" stroke="#B1C6B4" stroke-width="3.03851" stroke-miterlimit="10" stroke-linecap="round" stroke-linejoin="round" />
        <path d="M247.22 31.1205L247.964 8.69629L251.777 9.63823" stroke="#B1C6B4" stroke-width="3.03851" stroke-miterlimit="10" stroke-linecap="round" stroke-linejoin="round" />
        <path d="M242.192 5.11129L247.966 8.69673L252.098 2.33105" stroke="#B1C6B4" stroke-width="3.03851" stroke-miterlimit="10" stroke-linecap="round" stroke-linejoin="round" />
        <path d="M301.443 140.309V42.6665H368.898" stroke="#B1C6B4" stroke-width="3.03851" stroke-miterlimit="10" stroke-linecap="round" stroke-linejoin="round" />
        <path d="M315.07 78.3539V60.7002H360.344" stroke="#B1C6B4" stroke-width="3.03851" stroke-miterlimit="10" stroke-linecap="round" stroke-linejoin="round" />
        <path d="M328.529 71.3506H350.103" stroke="#B1C6B4" stroke-width="3.03851" stroke-miterlimit="10" stroke-linecap="round" stroke-linejoin="round" />
        <path d="M213.508 93.6073C213.508 93.6073 220.116 131.589 213.508 144.791C213.508 144.791 261.136 142.603 264.388 141.023C267.639 139.443 289.379 127.715 286.705 86.558C286.705 86.558 285.368 71.5174 282.543 64.1642C282.543 64.1642 292.403 55.945 284.867 46.2066C284.867 46.2066 280.507 40.0992 269.128 44.8241L259.404 40.4486C259.404 40.4486 256.487 29.0694 246.4 31.1052C236.312 33.141 236.57 42.6667 236.57 42.6667L197.723 47.7106C197.723 47.7106 209.497 49.9895 221.56 63.8755C231.253 75.0117 219.889 90.7207 213.508 93.6073Z" fill="#B1C6B4" />
        <path d="M315.07 114.937V97.2837H360.344" stroke="#B1C6B4" stroke-width="3.03851" stroke-miterlimit="10" stroke-linecap="round" stroke-linejoin="round" />
        <path d="M328.529 107.934H350.103" stroke="#B1C6B4" stroke-width="3.03851" stroke-miterlimit="10" stroke-linecap="round" stroke-linejoin="round" />
        <path d="M336.916 42.1049C334.197 39.6589 332.434 36.1647 332.282 32.2146C331.979 24.4512 338.01 17.9032 345.789 17.5994C353.552 17.2955 360.1 23.327 360.404 31.1055C360.571 35.4506 358.763 39.4159 355.755 42.1201" stroke="#B1C6B4" stroke-width="3.03851" stroke-miterlimit="10" stroke-linecap="round" stroke-linejoin="round" />
        <path d="M346.352 35.6487C348.425 35.6487 350.105 33.9686 350.105 31.8961C350.105 29.8236 348.425 28.1436 346.352 28.1436C344.28 28.1436 342.6 29.8236 342.6 31.8961C342.6 33.9686 344.28 35.6487 346.352 35.6487Z" fill="#B1C6B4" stroke="#B1C6B4" stroke-width="3.03851" stroke-miterlimit="10" stroke-linecap="round" stroke-linejoin="round" />
        <path d="M335.17 14.3936C335.17 14.3936 336.142 17.979 338.406 20.0604" stroke="#B1C6B4" stroke-width="3.03851" stroke-miterlimit="10" stroke-linecap="round" stroke-linejoin="round" />
        <path d="M185.555 102.586C185.555 102.586 199.714 108.633 191.966 114.968C189.11 117.308 186.299 112.522 188.912 111.094C192.68 109.043 202.768 122.322 197.162 124.023C195.323 124.585 194.138 122.063 195.749 120.939C197.967 119.389 203.831 122.686 204.652 127.381" stroke="#B1C6B4" stroke-width="1.51925" stroke-miterlimit="10" stroke-linecap="round" stroke-linejoin="round" />
        <path d="M145.293 121.38C145.293 121.38 220.041 103.742 225.069 78.37C230.098 52.9984 180.601 42.8498 175.998 44.7489C170.847 46.8758 179.811 54.3354 179.811 54.3354C179.811 54.3354 162.446 45.1287 156.019 45.4021C149.243 45.6908 165.803 55.6723 165.803 55.6723C165.803 55.6723 133.489 47.9697 132.349 55.6723C131.21 63.3749 170.756 78.3548 170.756 78.3548" fill="white" />
        <path d="M145.293 121.38C145.293 121.38 220.041 103.742 225.069 78.37C230.098 52.9984 180.601 42.8498 175.998 44.7489C170.847 46.8758 179.811 54.3354 179.811 54.3354C179.811 54.3354 162.446 45.1287 156.019 45.4021C149.243 45.6908 165.803 55.6723 165.803 55.6723C165.803 55.6723 133.489 47.9697 132.349 55.6723C131.21 63.3749 170.756 78.3548 170.756 78.3548" stroke="#B1C6B4" stroke-width="3.03851" stroke-miterlimit="10" stroke-linecap="round" stroke-linejoin="round" />
        <path d="M140.6 75.1334L150.353 69.5273" stroke="#B1C6B4" stroke-width="3.03851" stroke-miterlimit="10" stroke-linecap="round" stroke-linejoin="round" />
        <path d="M140.599 64.2559C140.599 64.2559 114.361 73.5385 114.65 100.308C114.938 127.077 166.608 141.631 219.266 134.688" stroke="#B1C6B4" stroke-width="4.55776" stroke-miterlimit="10" stroke-linejoin="round" />
        <path d="M21.2156 119.405C27.3407 119.405 32.3061 114.439 32.3061 108.314C32.3061 102.189 27.3407 97.2236 21.2156 97.2236C15.0904 97.2236 10.125 102.189 10.125 108.314C10.125 114.439 15.0904 119.405 21.2156 119.405Z" fill="white" stroke="#B1C6B4" stroke-width="3.03851" stroke-miterlimit="10" />
        <path d="M2.55957 112.218C2.55957 112.218 7.77061 123.309 14.9415 126.56L2.55957 112.218Z" fill="white" />
        <path d="M2.55957 112.218C2.55957 112.218 7.77061 123.309 14.9415 126.56" stroke="#B1C6B4" stroke-width="4.55776" stroke-miterlimit="10" stroke-linecap="round" stroke-linejoin="round" />
        <path d="M39.2203 92.438C39.2963 95.0663 55.5675 95.431 57.8463 91.5873C60.1252 87.7435 51.587 57.7383 47.7433 57.6015C43.8996 57.4648 39.0684 87.7435 39.2203 92.438Z" fill="#B1C6B4" stroke="#B1C6B4" stroke-width="3.03851" stroke-miterlimit="10" stroke-linecap="round" stroke-linejoin="round" />
        <path d="M83.8556 74.5261L80.2246 67.7199L89.1274 65.2891L85.7395 74.9059L89.1274 79.3877H82.8529L83.8556 74.5261Z" fill="#B1C6B4" stroke="#B1C6B4" stroke-width="3.03851" stroke-miterlimit="10" stroke-linecap="round" stroke-linejoin="round" />
        <path d="M117.461 66.8381C117.4 68.7372 119.74 72.3986 117.582 74.7838C115.425 77.1691 105.246 78.1566 103.316 74.7686C101.372 71.3655 103.089 65.5468 105.291 62.7209C107.479 59.9103 121.183 57.0693 132.881 56.6743C132.881 56.6743 134.598 59.8496 134.811 60.6092C133.914 60.8827 117.673 60.6851 117.461 66.8381Z" fill="#B1C6B4" stroke="#B1C6B4" stroke-width="1.51925" stroke-miterlimit="10" stroke-linecap="round" stroke-linejoin="round" />
        <path d="M21.215 104.318C22.482 104.318 23.509 103.291 23.509 102.024C23.509 100.757 22.482 99.73 21.215 99.73C19.948 99.73 18.9209 100.757 18.9209 102.024C18.9209 103.291 19.948 104.318 21.215 104.318Z" fill="#B1C6B4" />
    </g>
    <defs>
        <clipPath id="clip0_935_29313">
            <rect width="378.72" height="146.107" fill="white" transform="translate(0.280273 0.812012)" />
        </clipPath>
    </defs>
</svg>
