<svg width="14" height="4" viewBox="0 0 14 4" fill="none" xmlns="http://www.w3.org/2000/svg">
    <g opacity="0.3">
        <path d="M1.66111 3.5795C1.22171 3.5795 0.844819 3.42609 0.530425 3.11927C0.219819 2.80867 0.06641 2.43177 0.0701979 1.98859C0.06641 1.55677 0.219819 1.18746 0.530425 0.880637C0.844819 0.573819 1.22171 0.42041 1.66111 0.42041C2.07777 0.42041 2.4452 0.573819 2.76338 0.880637C3.08535 1.18746 3.24823 1.55677 3.25202 1.98859C3.24823 2.28405 3.17058 2.55299 3.01906 2.79541C2.87133 3.03405 2.67815 3.22533 2.43952 3.36927C2.20088 3.50943 1.94141 3.5795 1.66111 3.5795Z" fill="#1E1E1E"/>
        <path d="M7.03511 3.5795C6.59571 3.5795 6.21882 3.42609 5.90443 3.11927C5.59382 2.80867 5.44041 2.43177 5.4442 1.98859C5.44041 1.55677 5.59382 1.18746 5.90443 0.880637C6.21882 0.573819 6.59571 0.42041 7.03511 0.42041C7.45177 0.42041 7.8192 0.573819 8.13738 0.880637C8.45935 1.18746 8.62223 1.55677 8.62602 1.98859C8.62223 2.28405 8.54458 2.55299 8.39306 2.79541C8.24533 3.03405 8.05215 3.22533 7.81352 3.36927C7.57488 3.50943 7.31541 3.5795 7.03511 3.5795Z" fill="#1E1E1E"/>
        <path d="M12.4091 3.5795C11.9697 3.5795 11.5928 3.42609 11.2784 3.11927C10.9678 2.80867 10.8144 2.43177 10.8182 1.98859C10.8144 1.55677 10.9678 1.18746 11.2784 0.880637C11.5928 0.573819 11.9697 0.42041 12.4091 0.42041C12.8258 0.42041 13.1932 0.573819 13.5114 0.880637C13.8334 1.18746 13.9962 1.55677 14 1.98859C13.9962 2.28405 13.9186 2.55299 13.7671 2.79541C13.6193 3.03405 13.4262 3.22533 13.1875 3.36927C12.9489 3.50943 12.6894 3.5795 12.4091 3.5795Z" fill="#1E1E1E"/>
    </g>
</svg>