<svg width="24" height="15" viewBox="0 0 24 15" fill="none" xmlns="http://www.w3.org/2000/svg">
    <path d="M21.9452 5.94444L20.6111 6.80409V4.02047C20.6111 3.0653 20.2405 2.23977 19.4994 1.54386C18.7582 0.847953 17.8688 0.5 16.8312 0.5H7.31467C6.27704 0.5 5.38765 0.847953 4.64648 1.54386C3.90532 2.23977 3.53474 3.0653 3.53474 4.02047C3.53474 4.26608 3.62368 4.47076 3.80156 4.6345C3.97944 4.79825 4.20179 4.88012 4.46861 4.88012C4.76507 4.88012 5.00224 4.79825 5.18012 4.6345C5.358 4.47076 5.44694 4.26608 5.44694 4.02047C5.44694 3.52924 5.63223 3.11306 6.00281 2.77193C6.37339 2.4308 6.81068 2.26023 7.31467 2.26023H16.8312C17.3352 2.26023 17.7725 2.4308 18.143 2.77193C18.5136 3.11306 18.6989 3.52924 18.6989 4.02047V6.72222L17.3648 5.82164C16.8015 5.52144 16.3717 5.61696 16.0752 6.10819C15.7194 6.62671 15.8084 7.03606 16.342 7.33626L19.6773 9.26023L23.057 7.33626C23.5609 7.03606 23.6647 6.62671 23.3682 6.10819C22.9235 5.69883 22.4492 5.64425 21.9452 5.94444ZM19.6773 10.1199C19.3808 10.1199 19.1436 10.2018 18.9657 10.3655C18.7879 10.5292 18.6989 10.7339 18.6989 10.9795C18.6989 11.4708 18.5136 11.8869 18.143 12.2281C17.7725 12.5692 17.3352 12.7398 16.8312 12.7398H7.31467C6.81068 12.7398 6.37339 12.5692 6.00281 12.2281C5.63223 11.8869 5.44694 11.4708 5.44694 10.9795V8.27778L6.78103 9.17836C6.84032 9.17836 6.92926 9.19201 7.04785 9.2193C7.16643 9.24659 7.25537 9.26023 7.31467 9.26023C7.55184 9.26023 7.80383 9.13743 8.07065 8.89181C8.42641 8.3733 8.33747 7.96394 7.80383 7.66374L4.46861 5.73977L1.08891 7.66374C0.584916 7.96394 0.481153 8.3733 0.777618 8.89181C1.10373 9.35575 1.54843 9.45127 2.11171 9.17836L3.4458 8.27778V10.9795C3.4458 11.9347 3.81638 12.7602 4.55754 13.4561C5.29871 14.152 6.1881 14.5 7.22573 14.5H16.7423C17.7799 14.5 18.6693 14.152 19.4104 13.4561C20.1516 12.7602 20.5222 11.9347 20.5222 10.9795C20.5518 10.7339 20.4851 10.5292 20.3221 10.3655C20.159 10.2018 19.9441 10.1199 19.6773 10.1199Z" fill="#47474A"/>
</svg>
