<svg width="12" height="15" viewBox="0 0 12 15" fill="none" xmlns="http://www.w3.org/2000/svg">
    <path d="M9.47059 1.5H2.41176C2.03734 1.5 1.67825 1.64335 1.4135 1.89852C1.14874 2.15369 1 2.49977 1 2.86063V13.1593C1.00002 13.2188 1.01627 13.2774 1.04712 13.329C1.07798 13.3806 1.12236 13.4235 1.17582 13.4534C1.22927 13.4833 1.28994 13.4991 1.35175 13.4993C1.41355 13.4995 1.47433 13.4841 1.528 13.4545L5.24094 11.4102C5.45421 11.2928 5.69557 11.231 5.94118 11.231C6.18678 11.231 6.42814 11.2928 6.64141 11.4102L10.3544 13.4552C10.4081 13.4848 10.4689 13.5002 10.5308 13.5C10.5926 13.4998 10.6534 13.4839 10.7068 13.4539C10.7603 13.4239 10.8047 13.3809 10.8355 13.3292C10.8663 13.2775 10.8825 13.2189 10.8824 13.1593V2.86063C10.8824 2.49977 10.7336 2.15369 10.4689 1.89852C10.2041 1.64335 9.84501 1.5 9.47059 1.5Z" fill="#DD9324" stroke="#DD9324" stroke-width="1.5" stroke-linecap="round" stroke-linejoin="round" />
</svg>
