<svg width="12" height="15" viewBox="0 0 12 15" fill="none" xmlns="http://www.w3.org/2000/svg">
    <path d="M2.56235 12.4719L6.49471 10.7502L10.4271 12.4719V2.10159H2.56235V12.4719ZM2.09047 14.4338C1.82831 14.5406 1.57926 14.5171 1.34332 14.3634C1.10738 14.2096 0.98941 13.9865 0.98941 13.6939V2.10159C0.98941 1.66115 1.14356 1.28398 1.45186 0.970068C1.76015 0.656156 2.13032 0.499467 2.56235 0.500001H10.4271C10.8596 0.500001 11.2301 0.656957 11.5384 0.970869C11.8467 1.28478 12.0005 1.66169 12 2.10159V13.6931C12 13.9867 11.882 14.2104 11.6461 14.3642C11.4102 14.5179 11.1611 14.5411 10.899 14.4338L6.49471 12.5119L2.09047 14.4338Z" fill="#47474A"/>
</svg>
