<svg width="17" height="15" viewBox="0 0 17 15" fill="none" xmlns="http://www.w3.org/2000/svg">
    <path fill-rule="evenodd" clip-rule="evenodd" d="M0.45745 0.987939C0.581367 0.69258 0.873294 0.5 1.19711 0.5H15.3253C15.6107 0.5 15.8745 0.649989 16.0178 0.893687C16.161 1.13738 16.162 1.43794 16.0204 1.68258L8.83239 14.1017C8.66919 14.3837 8.3479 14.5384 8.02237 14.4918C7.69683 14.4452 7.4333 14.2067 7.35796 13.8906L5.67508 6.82929L0.630998 1.84933C0.402028 1.62327 0.333532 1.2833 0.45745 0.987939ZM7.3172 6.8175L8.45091 11.5745L13.1477 3.4596L7.3172 6.8175ZM12.364 2.08084H3.12992L6.53194 5.4396L12.364 2.08084Z" fill="#47474A"/>
</svg>
