<svg width="24" height="24" viewBox="0 0 24 24" fill="none" xmlns="http://www.w3.org/2000/svg">
<mask id="mask0_108_1097" style="mask-type:alpha" maskUnits="userSpaceOnUse" x="0" y="0" width="24" height="24">
<rect width="23.0769" height="24" rx="1" fill="#D9D9D9"/>
</mask>
<g mask="url(#mask0_108_1097)">
<path d="M9.78119 22C9.27506 22 8.84873 21.6218 8.78834 21.1193L8.58035 19.3889C8.53671 19.0258 8.29186 18.7257 7.9791 18.5362C7.95947 18.5243 7.93998 18.5123 7.92063 18.5C7.90015 18.487 7.87973 18.474 7.85935 18.4608C7.55558 18.2645 7.17457 18.2147 6.84315 18.3595L5.35153 19.0113C4.87947 19.2176 4.32794 19.0315 4.07737 18.5813L2.2895 15.3697C2.05063 14.9406 2.1587 14.4015 2.54452 14.0977L4.0849 12.8845C4.24969 12.7547 4.32688 12.5473 4.32688 12.3375V11.6625C4.32688 11.4527 4.24969 11.2453 4.08489 11.1155L2.54452 9.90233C2.1587 9.59847 2.05063 9.05942 2.2895 8.63033L4.07737 5.41865C4.32794 4.96854 4.87947 4.78244 5.35153 4.98871L6.84315 5.64052C7.17457 5.78534 7.55528 5.73476 7.86216 5.54336C7.88554 5.52878 7.90903 5.51433 7.93265 5.5C7.9546 5.48668 7.97656 5.47358 7.99851 5.46069C8.30511 5.28076 8.53565 4.983 8.57808 4.63003L8.78834 2.88067C8.84873 2.37815 9.27506 2 9.78119 2H13.2956C13.8018 2 14.2281 2.37815 14.2885 2.88067L14.4965 4.61113C14.5401 4.97418 14.785 5.27434 15.0977 5.46379C15.1174 5.47568 15.1368 5.48775 15.1562 5.5C15.1767 5.51296 15.1971 5.52602 15.2175 5.53919C15.5212 5.73549 15.9023 5.78534 16.2337 5.64052L17.7253 4.98871C18.1974 4.78243 18.7489 4.96854 18.9995 5.41865L20.7873 8.63033C21.0262 9.05942 20.9181 9.59847 20.5323 9.90233L18.9919 11.1155C18.8271 11.2453 18.75 11.4527 18.75 11.6625V12.3375C18.75 12.5447 18.8077 12.7584 18.9705 12.8866L20.5083 14.0977C20.8941 14.4015 21.0022 14.9406 20.7633 15.3697L18.9768 18.5789C18.7256 19.03 18.1723 19.2158 17.6998 19.0076L16.2349 18.362C15.9029 18.2157 15.5208 18.2659 15.2129 18.4577C15.1901 18.472 15.1672 18.486 15.1442 18.5C15.1222 18.5133 15.1003 18.5264 15.0783 18.5393C14.7717 18.7192 14.5412 19.017 14.4988 19.37L14.2885 21.1193C14.2281 21.6218 13.8018 22 13.2956 22H9.78119ZM11.5865 15.5C12.516 15.5 13.3092 15.1583 13.9663 14.475C14.6234 13.7917 14.9519 12.9667 14.9519 12C14.9519 11.0333 14.6234 10.2083 13.9663 9.525C13.3092 8.84167 12.516 8.5 11.5865 8.5C10.641 8.5 9.8437 8.84167 9.19467 9.525C8.54563 10.2083 8.22111 11.0333 8.22111 12C8.22111 12.9667 8.54563 13.7917 9.19467 14.475C9.8437 15.1583 10.641 15.5 11.5865 15.5Z" fill="white"/>
</g>
</svg>
