<svg width="21" height="22" viewBox="0 0 21 22" fill="none" xmlns="http://www.w3.org/2000/svg">
    <path fill-rule="evenodd" clip-rule="evenodd" d="M12.2793 1.152C11.9093 1 11.4393 1 10.5003 1C9.56131 1 9.09131 1 8.72131 1.152C8.22877 1.35421 7.83669 1.74377 7.63131 2.235C7.53731 2.458 7.50131 2.719 7.48631 3.098C7.47965 3.3726 7.40305 3.64097 7.26376 3.87772C7.12448 4.11447 6.92711 4.31178 6.69031 4.451C6.44906 4.5851 6.17786 4.65615 5.90184 4.65754C5.62582 4.65894 5.35392 4.59065 5.11132 4.459C4.77332 4.281 4.52832 4.183 4.28632 4.151C3.75687 4.08148 3.22139 4.2238 2.79632 4.547C2.47832 4.789 2.24332 5.193 1.77432 6C1.30432 6.807 1.07032 7.21 1.01732 7.605C0.947316 8.131 1.09132 8.663 1.41732 9.084C1.56532 9.276 1.77432 9.437 2.09732 9.639C2.57432 9.936 2.88032 10.442 2.88032 11C2.88032 11.558 2.57432 12.064 2.09832 12.36C1.77432 12.563 1.56532 12.724 1.41632 12.916C1.2554 13.1239 1.13728 13.3617 1.0688 13.6156C1.00031 13.8694 0.982816 14.1343 1.01732 14.395C1.07032 14.789 1.30432 15.193 1.77432 16C2.24432 16.807 2.47832 17.21 2.79632 17.453C3.22032 17.776 3.75632 17.918 4.28632 17.849C4.52832 17.817 4.77332 17.719 5.11132 17.541C5.35404 17.4092 5.62613 17.3408 5.90234 17.3422C6.17855 17.3436 6.44994 17.4147 6.69131 17.549C7.17731 17.829 7.46531 18.344 7.48631 18.902C7.50131 19.282 7.53731 19.542 7.63131 19.765C7.83531 20.255 8.22731 20.645 8.72131 20.848C9.09131 21 9.56131 21 10.5003 21C11.4393 21 11.9093 21 12.2793 20.848C12.7719 20.6458 13.1639 20.2562 13.3693 19.765C13.4633 19.542 13.4993 19.282 13.5143 18.902C13.5343 18.344 13.8233 17.828 14.3103 17.549C14.5516 17.4149 14.8228 17.3439 15.0988 17.3425C15.3748 17.3411 15.6467 17.4093 15.8893 17.541C16.2273 17.719 16.4723 17.817 16.7143 17.849C17.2443 17.919 17.7803 17.776 18.2043 17.453C18.5223 17.211 18.7573 16.807 19.2263 16C19.6963 15.193 19.9303 14.79 19.9833 14.395C20.0177 14.1343 20 13.8693 19.9314 13.6155C19.8627 13.3616 19.7444 13.1239 19.5833 12.916C19.4353 12.724 19.2263 12.563 18.9033 12.361C18.4263 12.064 18.1203 11.558 18.1203 11C18.1203 10.442 18.4263 9.936 18.9023 9.64C19.2263 9.437 19.4353 9.276 19.5843 9.084C19.7452 8.87606 19.8633 8.63829 19.9318 8.38443C20.0003 8.13057 20.0178 7.86566 19.9833 7.605C19.9303 7.211 19.6963 6.807 19.2263 6C18.7563 5.193 18.5223 4.79 18.2043 4.547C17.7792 4.2238 17.2438 4.08148 16.7143 4.151C16.4723 4.183 16.2273 4.281 15.8893 4.459C15.6466 4.59083 15.3745 4.65922 15.0983 4.65782C14.8221 4.65642 14.5507 4.58528 14.3093 4.451C14.0727 4.31166 13.8755 4.11429 13.7364 3.87755C13.5973 3.64081 13.5209 3.37251 13.5143 3.098C13.4993 2.718 13.4633 2.458 13.3693 2.235C13.2677 1.99174 13.1191 1.77088 12.9321 1.58506C12.745 1.39923 12.5232 1.25208 12.2793 1.152ZM10.5003 14C12.1703 14 13.5233 12.657 13.5233 11C13.5233 9.343 12.1693 8 10.5003 8C8.83031 8 7.47732 9.343 7.47732 11C7.47732 12.657 8.83131 14 10.5003 14Z" stroke="#FAFAFA" stroke-width="2" />
</svg>
