<svg width="28" height="28" viewBox="0 0 28 28" fill="none" xmlns="http://www.w3.org/2000/svg">
    <path d="M16.3333 17.5V19.8333C16.3333 20.1428 16.2104 20.4395 15.9916 20.6583C15.7728 20.8771 15.4761 21 15.1667 21H7L3.5 24.5V12.8333C3.5 12.5239 3.62292 12.2272 3.84171 12.0084C4.0605 11.7896 4.35725 11.6667 4.66667 11.6667H7M24.5 16.3333L21 12.8333H12.8333C12.5239 12.8333 12.2272 12.7104 12.0084 12.4916C11.7896 12.2728 11.6667 11.9761 11.6667 11.6667V4.66667C11.6667 4.35725 11.7896 4.0605 12.0084 3.84171C12.2272 3.62292 12.5239 3.5 12.8333 3.5H23.3333C23.6428 3.5 23.9395 3.62292 24.1583 3.84171C24.3771 4.0605 24.5 4.35725 24.5 4.66667V16.3333Z" stroke="#020202" stroke-width="2" stroke-linecap="round" stroke-linejoin="round"/>
</svg>
