<svg width="28" height="28" viewBox="0 0 28 28" fill="none" xmlns="http://www.w3.org/2000/svg">
    <path fill-rule="evenodd" clip-rule="evenodd" d="M9.32609 7.26087C9.32609 6.13082 9.775 5.04705 10.5741 4.24798C11.3731 3.44891 12.4569 3 13.587 3C14.717 3 15.8008 3.44891 16.5998 4.24798C17.3989 5.04705 17.8478 6.13082 17.8478 7.26087C17.8478 8.39092 17.3989 9.47469 16.5998 10.2738C15.8008 11.0728 14.717 11.5217 13.587 11.5217C12.4569 11.5217 11.3731 11.0728 10.5741 10.2738C9.775 9.47469 9.32609 8.39092 9.32609 7.26087ZM9.32609 15.4783C7.91352 15.4783 6.55881 16.0394 5.55997 17.0382C4.56114 18.0371 4 19.3918 4 20.8043C4 21.6519 4.33668 22.4647 4.93598 23.064C5.53529 23.6633 6.34811 24 7.19565 24H19.9783C20.8258 24 21.6386 23.6633 22.2379 23.064C22.8372 22.4647 23.1739 21.6519 23.1739 20.8043C23.1739 19.3918 22.6128 18.0371 21.6139 17.0382C20.6151 16.0394 19.2604 15.4783 17.8478 15.4783H9.32609Z" stroke="#020202" stroke-width="2" />
</svg>
