<svg fill="#DD9324" height="28px" width="28px" version="1.1" id="Layer_1" xmlns="http://www.w3.org/2000/svg" xmlns:xlink="http://www.w3.org/1999/xlink" viewBox="0 0 17.92 17.92" enable-background="new 0 0 512 512" xml:space="preserve">
  <path d="M8.96 0C4.011 0 0 4.011 0 8.96s4.011 8.96 8.96 8.96 8.96 -4.011 8.96 -8.96S13.909 0 8.96 0zm5.226 9.706c0 0.413 -0.333 0.746 -0.746 0.746h-2.986V13.44c0 0.413 -0.333 0.746 -0.746 0.746h-1.495c-0.413 0 -0.746 -0.336 -0.746 -0.746v-2.986H4.48c-0.413 0 -0.746 -0.336 -0.746 -0.746v-1.495c0 -0.413 0.333 -0.746 0.746 -0.746h2.986V4.48c0 -0.413 0.333 -0.746 0.746 -0.746h1.495c0.413 0 0.746 0.336 0.746 0.746v2.986H13.44c0.413 0 0.746 0.336 0.746 0.746v1.495z"/>
</svg>
